<?xml version="1.0" encoding="UTF-8"?><svg id="Layer_1" xmlns="http://www.w3.org/2000/svg" xmlns:xlink="http://www.w3.org/1999/xlink" viewBox="0 0 273 27"><defs><linearGradient id="linear-gradient" x1="7.46" y1="20.19" x2="30.56" y2="-2.92" gradientUnits="userSpaceOnUse"><stop offset=".03" stop-color="#ff86b4"/><stop offset=".04" stop-color="#fa84b7"/><stop offset=".16" stop-color="#c572dd"/><stop offset=".25" stop-color="#a468f5"/><stop offset=".31" stop-color="#9864ff"/><stop offset=".38" stop-color="#8470ff"/><stop offset=".68" stop-color="#3d9cff"/><stop offset=".89" stop-color="#11b8ff"/><stop offset="1" stop-color="#00c3ff"/></linearGradient><linearGradient id="linear-gradient-2" x1="23.21" y1="4.46" x2="23.21" y2="-3.13" gradientUnits="userSpaceOnUse"><stop offset=".07" stop-color="#fff"/><stop offset=".89" stop-color="#00baff"/></linearGradient><linearGradient id="linear-gradient-3" x1="31.8" y1="3.99" x2="44.57" y2="3.99" gradientUnits="userSpaceOnUse"><stop offset="0" stop-color="#fff"/><stop offset=".89" stop-color="#30c4ff"/></linearGradient><linearGradient id="linear-gradient-4" x1="22.37" y1="15.33" x2="37.66" y2="18.19" gradientUnits="userSpaceOnUse"><stop offset=".03" stop-color="#7b32dc"/><stop offset=".98" stop-color="#32bdff"/></linearGradient></defs><path d="M60.62,6.33h-6.67v-3.41h17.02v3.41h-6.67v17.53h-3.68V6.33Z" style="fill:#2e40aa;"/><path d="M71.33,8.07h3.65v3.56c.99-2.36,2.81-3.98,5.59-3.86v3.83h-.21c-3.17,0-5.38,2.06-5.38,6.25v6.01h-3.65v-15.79Z" style="fill:#2e40aa;"/><path d="M82.13,16.02v-.06c0-4.52,3.2-8.23,7.72-8.23,5.03,0,7.57,3.95,7.57,8.5,0,.33-.03.66-.06,1.02h-11.61c.39,2.57,2.21,4.01,4.55,4.01,1.76,0,3.02-.66,4.28-1.88l2.12,1.88c-1.5,1.79-3.56,2.96-6.46,2.96-4.58,0-8.11-3.32-8.11-8.2ZM93.83,14.86c-.24-2.33-1.62-4.16-4.01-4.16-2.21,0-3.77,1.71-4.1,4.16h8.11Z" style="fill:#2e40aa;"/><path d="M99.49,19.31v-.06c0-3.41,2.69-5.09,6.55-5.09,1.77,0,3.02.27,4.25.66v-.39c0-2.24-1.38-3.44-3.92-3.44-1.76,0-3.08.39-4.52.99l-.99-2.84c1.77-.78,3.47-1.29,5.98-1.29,2.36,0,4.13.63,5.23,1.76,1.17,1.14,1.71,2.81,1.71,4.88v9.36h-3.53v-1.97c-1.08,1.29-2.72,2.3-5.15,2.3-2.96,0-5.62-1.71-5.62-4.88ZM110.35,18.18v-1.08c-.93-.36-2.15-.63-3.59-.63-2.33,0-3.71.99-3.71,2.63v.06c0,1.53,1.35,2.39,3.08,2.39,2.39,0,4.22-1.38,4.22-3.38Z" style="fill:#2e40aa;"/><path d="M116.45,21.8l1.62-2.45c1.73,1.29,3.56,1.94,5.18,1.94s2.45-.66,2.45-1.71v-.06c0-1.23-1.68-1.65-3.53-2.21-2.33-.66-4.94-1.62-4.94-4.61v-.06c0-3.02,2.48-4.85,5.62-4.85,1.97,0,4.13.69,5.8,1.79l-1.44,2.57c-1.53-.93-3.14-1.5-4.46-1.5-1.41,0-2.21.69-2.21,1.56v.06c0,1.17,1.7,1.65,3.56,2.24,2.3.72,4.91,1.76,4.91,4.61v.06c0,3.32-2.57,4.97-5.86,4.97-2.24,0-4.73-.78-6.7-2.36Z" style="fill:#2e40aa;"/><path d="M132.03,18.12v-10.05h3.62v8.97c0,2.45,1.23,3.83,3.38,3.83s3.56-1.44,3.56-3.89v-8.91h3.65v15.79h-3.65v-2.45c-1.02,1.5-2.48,2.78-4.94,2.78-3.56,0-5.62-2.39-5.62-6.07Z" style="fill:#2e40aa;"/><path d="M150.35,8.07h3.65v3.56c.99-2.36,2.81-3.98,5.59-3.86v3.83h-.21c-3.17,0-5.38,2.06-5.38,6.25v6.01h-3.65v-15.79Z" style="fill:#2e40aa;"/><path d="M161.15,16.02v-.06c0-4.52,3.2-8.23,7.72-8.23,5.03,0,7.57,3.95,7.57,8.5,0,.33-.03.66-.06,1.02h-11.61c.39,2.57,2.21,4.01,4.55,4.01,1.76,0,3.02-.66,4.28-1.88l2.12,1.88c-1.5,1.79-3.56,2.96-6.46,2.96-4.58,0-8.11-3.32-8.11-8.2ZM172.84,14.86c-.24-2.33-1.62-4.16-4.01-4.16-2.21,0-3.77,1.71-4.1,4.16h8.11Z" style="fill:#2e40aa;"/><path d="M191.29,2.77h3.41l9.21,21.09h-3.89l-2.12-5.06h-9.9l-2.15,5.06h-3.77l9.21-21.09ZM196.55,15.55l-3.62-8.38-3.59,8.38h7.21Z" style="fill:#2e40aa;"/><path d="M207.78,2.92h3.68v20.94h-3.68V2.92Z" style="fill:#2e40aa;"/><path d="M21.99,26.43l18.05-18.05c.75-.75.75-1.98,0-2.73l-4.74-4.74C34.71.33,33.92,0,33.09,0H8.16C7.33,0,6.53.33,5.95.91L1.21,5.65c-.75.75-.75,1.98,0,2.73l18.05,18.05c.75.75,1.98.75,2.73,0Z" style="fill:url(#linear-gradient);"/><path d="M5.82,1.05c.65-.65,1.59-.93,2.49-.75l31.34,6.37c.62.13.92.79.69,1.32.43-.74.33-1.7-.3-2.33l-4.74-4.74c-.59-.59-1.38-.91-2.21-.91H8.16c-.83,0-1.62.33-2.21.91l-.13.13Z" style="fill:url(#linear-gradient-2); opacity:.4;"/><path d="M33.7,1.37l-1.84,3.71,7.79,1.58c.62.13.92.79.69,1.32.43-.74.33-1.7-.3-2.33l-4.74-4.74c-.59-.59-1.38-.91-2.21-.91h-.24c.71,0,1.17.74.85,1.37Z" style="fill:url(#linear-gradient-3); opacity:.6;"/><path d="M40.34,7.98c.23-.53-.06-1.19-.69-1.32l-7.79-1.58-10.45,21.11c-.29.59-.96.84-1.53.66.7.29,1.53.15,2.1-.42l18.05-18.05c.12-.12.22-.26.3-.4h0Z" style="fill:url(#linear-gradient-4);"/></svg>