<svg width="47" height="47" viewBox="0 0 47 47" fill="none" xmlns="http://www.w3.org/2000/svg">
<path d="M37.0643 26.7633L38.7629 40.9905C38.8523 41.7543 38.4796 42.5081 37.8087 42.8879L32.8379 45.7578C32.1647 46.1465 31.3344 46.0947 30.7176 45.6354L19.2546 37.0532L5.02745 38.7518C4.26368 38.8412 3.5099 38.4685 3.13006 37.7976L0.260166 32.8268C-0.128531 32.1536 -0.0767841 31.3233 0.382506 30.7065L8.9671 19.2347L7.28387 5.02108C7.19449 4.25731 7.56719 3.50353 8.23806 3.12368L13.1976 0.260272C13.8709 -0.128426 14.7012 -0.0766785 15.3179 0.382612L26.7898 8.9672L41.017 7.26865C41.7807 7.17927 42.5345 7.55197 42.9143 8.22284L45.7842 13.1936C46.1729 13.8669 46.1212 14.6972 45.6619 15.3139L37.0797 26.7769L37.0643 26.7633Z" fill="url(#paint0_radial_999_14619)"/>
<defs>
<radialGradient id="paint0_radial_999_14619" cx="0" cy="0" r="1" gradientUnits="userSpaceOnUse" gradientTransform="translate(41.7569 8.72569) rotate(127.81) scale(36.7669 36.7668)">
<stop stop-color="#9DCC4C"/>
<stop offset="1" stop-color="#D9E47C"/>
</radialGradient>
</defs>
</svg>
