<svg width="48" height="48" viewBox="0 0 48 48" fill="none" xmlns="http://www.w3.org/2000/svg">
<path d="M44.8279 29.5798C45.9064 31.5113 45.9709 33.9452 44.7846 35.9995C43.5974 38.0548 41.4585 39.2159 39.2471 39.2471C39.2159 41.4585 38.0538 43.5984 35.9995 44.7846C33.9452 45.9709 31.5123 45.9064 29.5808 44.8279C28.448 46.7271 26.3725 48 24 48C21.6275 48 19.552 46.7271 18.4192 44.8279C16.4887 45.9064 14.0548 45.9709 11.9995 44.7846C9.9452 43.5984 8.78412 41.4585 8.7529 39.2471C6.54152 39.2159 4.40264 38.0548 3.21537 35.9995C2.02912 33.9452 2.09357 31.5123 3.17207 29.5808C1.27185 28.448 0 26.3725 0 24C0 21.6275 1.27185 19.552 3.17207 18.4192C2.09357 16.4887 2.02912 14.0548 3.21537 11.9995C4.40264 9.9442 6.54152 8.78412 8.7529 8.7529C8.78412 6.54152 9.9442 4.40264 11.9995 3.21537C14.0548 2.02912 16.4887 2.09357 18.4192 3.17207C19.552 1.27185 21.6275 0 24 0C26.3725 0 28.448 1.27185 29.5808 3.17207C31.5123 2.09357 33.9452 2.02912 35.9995 3.21537C38.0548 4.40264 39.2159 6.54152 39.2471 8.7529C41.4585 8.78412 43.5974 9.9442 44.7846 11.9995C45.9709 14.0548 45.9064 16.4887 44.8269 18.4202C46.7271 19.551 48 21.6275 48 24C48 26.3725 46.7271 28.4479 44.8279 29.5798Z" fill="url(#paint0_radial_999_14629)"/>
<defs>
<radialGradient id="paint0_radial_999_14629" cx="0" cy="0" r="1" gradientUnits="userSpaceOnUse" gradientTransform="translate(15.3333 33.8333) rotate(-16.7529) scale(34.1146)">
<stop stop-color="#EE2328"/>
<stop offset="0.447006" stop-color="#F15C60"/>
<stop offset="1" stop-color="#F69068"/>
</radialGradient>
</defs>
</svg>
